<svg width="153" height="46" viewBox="0 0 153 46" fill="none" xmlns="http://www.w3.org/2000/svg">
<path fill-rule="evenodd" clip-rule="evenodd" d="M0 14.815L2.21379 3.56396H25.49L23.4251 14.815H17.8191L13.9836 34.3238C13.9337 34.5141 13.9173 34.7197 13.9173 34.94C13.9173 35.4245 14.0155 36.348 14.7368 36.348C15.8351 36.348 16.9007 35.6008 17.8183 35.1603L15.2773 45.2228C13.4087 45.6487 11.5236 46 9.57318 46C4.88554 46 0.344294 44.6952 0.344294 39.8542C0.344294 39.751 0.344294 39.6485 0.377824 39.5453L5.2462 14.8157H0V14.815Z" fill="white"/>
<path fill-rule="evenodd" clip-rule="evenodd" d="M52.6836 24.1295L33.8006 35.2041C34.9806 36.2602 36.2597 37.1983 38.0131 37.1983C42.7996 37.1983 46.3563 33.1646 49.3069 30.3046L47.0612 41.702C42.8978 44.3716 37.6524 45.8668 32.5215 45.8668C24.3092 45.8668 18.6868 39.7809 18.6868 32.7094C18.6868 23.0428 29.3902 13.1566 40.2906 13.1566C43.8808 13.1566 47.2902 14.7117 49.5849 17.1465C51.5526 19.2446 52.5192 21.4445 52.6836 24.1295ZM49.3887 45.222L55.617 13.5386H68.1564C68.1073 14.1255 68.0583 14.7125 68.0583 15.284C68.0583 15.827 68.2063 16.34 68.3698 16.8538C70.4029 14.8295 73.2546 13.1427 76.3851 13.1427C80.8928 13.1427 84.9581 16.0766 84.9581 20.2567C84.9581 20.7697 84.9082 21.2835 84.8109 21.7818L80.1887 45.222H67.3541L71.2559 25.4644C71.2886 25.2726 71.3049 25.097 71.3049 24.9067C71.3049 23.7621 70.2393 22.9257 68.9775 22.9257C67.6011 22.9257 66.6991 23.9231 66.4701 25.067L62.323 45.222H49.3887ZM81.6812 45.222L87.9267 13.5386H100.482V14.2719C100.482 15.3279 100.696 16.1937 101.35 17.074C102.088 16.2376 102.907 15.4457 103.941 14.8888C106.203 13.7003 109.071 13.1434 111.677 13.1434C112.726 13.1434 113.629 13.4076 114.579 13.8035C115.365 15.8424 116.644 17.4114 118.234 19.0104L113.072 45.2228H100.038L103.891 25.6993C103.941 25.4351 103.956 25.1702 103.956 24.9074C103.956 23.7768 103.3 22.7647 101.892 22.7647C100.449 22.7647 99.515 23.9239 99.2844 25.0977L95.3008 45.2228H81.6812V45.222ZM114.628 45.222L119.61 19.9047C121.84 21.5916 123.855 22.398 126.807 22.398C128.528 22.398 130.184 22.046 131.839 21.6501L127.2 45.222H114.628Z" fill="white"/>
<path fill-rule="evenodd" clip-rule="evenodd" d="M120.544 19.0098C121.807 18.687 123.069 18.3789 124.397 18.3789C126.741 18.3789 128.872 19.4642 130.888 20.4324C129.609 20.7991 128.281 21.1803 126.938 21.1803C124.527 21.1811 122.462 20.2568 120.544 19.0098ZM117.299 15.9442C116.218 14.272 115.218 12.5412 115.218 10.5609C115.218 7.67093 116.939 5.44181 119.037 3.40296C122.79 5.92628 126.43 7.42212 131.216 7.42212C133.446 7.42212 135.593 6.87984 137.708 6.27828C138.478 7.6424 139.232 9.07969 139.232 10.6348C139.232 13.5826 137.544 16.0027 135.364 18.1008C132.135 16.1798 128.693 14.5222 124.693 14.5222C122.135 14.5215 119.693 15.2248 117.299 15.9442ZM122.921 1.05602C124.431 0.49837 125.938 0 127.577 0C130.478 0 132.839 0.777197 134.987 2.52259C133.675 3.10951 132.346 3.60787 130.855 3.60787C127.889 3.60787 125.266 2.64041 122.921 1.05602ZM128.823 44.049L130.969 33.2232C131.822 34.045 134.034 36.3919 135.526 36.3919C136.657 36.3919 136.853 34.7636 136.853 34.045C136.853 32.9443 136.575 31.9322 135.821 31.0233C134.165 29.0437 132.034 27.283 132.034 24.6287C132.034 23.5426 132.296 22.472 132.575 21.4306C136.361 19.9494 138.444 17.5286 139.607 14.0378H153L151.115 23.6312C150.197 22.7647 149.115 21.7533 147.689 21.7533C146.426 21.7533 145.493 23.0004 145.493 24.0271C145.493 25.6108 146.377 27.3862 147.524 28.5739L149.605 30.7167C150.606 31.7427 151.081 33.1068 151.081 34.4555C151.081 36.9942 149.459 39.4136 147.607 41.2337C144.459 44.3139 141.279 45.296 136.591 45.296C133.904 45.2953 131.38 44.7676 128.823 44.049Z" fill="white"/>
<path fill-rule="evenodd" clip-rule="evenodd" d="M30.9808 30.0997C34.2749 29.2479 39.2913 25.1702 40.0126 22.1631C39.4548 22.046 38.8815 21.9282 38.3083 21.9282C34.9806 21.9282 30.7681 25.3751 30.7681 28.3968C30.7681 28.9691 30.8663 29.5421 30.9808 30.0997Z" fill="white"/>
</svg>
