<svg width="30" height="30" viewBox="0 0 30 30" fill="none" xmlns="http://www.w3.org/2000/svg">
<path d="M21.2513 25H7.50125C6.83821 25 6.20233 24.7366 5.73348 24.2678C5.26464 23.7989 5.00125 23.163 5.00125 22.5V8.75C5.00125 8.08696 5.26464 7.45107 5.73348 6.98223C6.20233 6.51339 6.83821 6.25 7.50125 6.25H12.5013V8.75H7.50125V22.5H21.2513V17.5H23.7513V22.5C23.7513 23.163 23.4879 23.7989 23.019 24.2678C22.5502 24.7366 21.9143 25 21.2513 25ZM14.6263 17.1337L12.8638 15.3663L20.73 7.5H16.2513V5H25.0013V13.75H22.5013V9.26875L14.6263 17.1337Z" fill="white"/>
</svg>
