<svg width="36" height="36" viewBox="0 0 36 36" fill="none" xmlns="http://www.w3.org/2000/svg">
<path d="M31.7972 11.4098C31.6341 10.8282 31.3165 10.3017 30.8782 9.88614C30.4274 9.45784 29.8749 9.15146 29.2729 8.99594C27.0198 8.40207 17.993 8.40207 17.993 8.40207C14.2298 8.35925 10.4676 8.54756 6.72751 8.96594C6.12547 9.13296 5.57404 9.44618 5.12227 9.87774C4.67836 10.3048 4.35683 10.8315 4.18887 11.4086C3.78539 13.5822 3.58936 15.7892 3.6034 17.9999C3.589 20.2087 3.78456 22.415 4.18887 24.5913C4.35324 25.166 4.67356 25.6902 5.11867 26.1138C5.56377 26.5373 6.11805 26.8432 6.72751 27.0052C9.01061 27.5978 17.993 27.5978 17.993 27.5978C21.761 27.6407 25.528 27.4524 29.2729 27.0339C29.8749 26.8784 30.4274 26.572 30.8782 26.1437C31.3221 25.7202 31.6376 25.1936 31.796 24.6201C32.21 22.4473 32.4113 20.2394 32.397 18.0275C32.4282 15.8064 32.2271 13.588 31.7972 11.4086V11.4098ZM15.1233 22.1078V13.8933L22.6336 18.0011L15.1233 22.1078Z" fill="white"/>
</svg>
