<svg width="36" height="36" viewBox="0 0 36 36" fill="none" xmlns="http://www.w3.org/2000/svg">
<path d="M32.3718 11.1356C32.202 10.5297 31.8712 9.98126 31.4146 9.54843C30.945 9.10229 30.3695 8.78315 29.7424 8.62114C27.3955 8.00253 17.9927 8.00254 17.9927 8.00254C14.0727 7.95794 10.1537 8.15409 6.25786 8.5899C5.63074 8.76388 5.05634 9.09014 4.58574 9.53968C4.12335 9.98458 3.78843 10.5332 3.61347 11.1343C3.19318 13.3985 2.98898 15.6974 3.00361 18.0002C2.98861 20.3009 3.19232 22.5992 3.61347 24.8661C3.78468 25.4648 4.11835 26.0109 4.582 26.452C5.04564 26.8932 5.623 27.2119 6.25786 27.3806C8.63606 27.9979 17.9927 27.9979 17.9927 27.9979C21.9176 28.0426 25.8415 27.8464 29.7424 27.4106C30.3695 27.2486 30.945 26.9294 31.4146 26.4833C31.8769 26.0421 32.2056 25.4935 32.3706 24.8961C32.8018 22.6329 33.0115 20.3329 32.9967 18.029C33.0291 15.7153 32.8197 13.4045 32.3718 11.1343V11.1356ZM15.0033 22.2792V13.7225L22.8265 18.0015L15.0033 22.2792Z" fill="#8D86C9"/>
</svg>
