<svg width="45" height="45" viewBox="0 0 45 45" fill="none" xmlns="http://www.w3.org/2000/svg">
<rect width="45" height="45" fill="#8D86C9"/>
<path fill-rule="evenodd" clip-rule="evenodd" d="M30.25 22.5C30.25 22.7569 30.148 23.0033 29.9663 23.185C29.7846 23.3667 29.5382 23.4688 29.2813 23.4688L18.0573 23.4688L22.2171 27.6266C22.3072 27.7167 22.3787 27.8236 22.4274 27.9413C22.4762 28.059 22.5012 28.1851 22.5012 28.3125C22.5012 28.4399 22.4762 28.566 22.4274 28.6837C22.3787 28.8014 22.3072 28.9083 22.2171 28.9984C22.1271 29.0884 22.0201 29.1599 21.9025 29.2086C21.7848 29.2574 21.6587 29.2825 21.5313 29.2825C21.4039 29.2825 21.2778 29.2574 21.1601 29.2086C21.0424 29.1599 20.9355 29.0884 20.8454 28.9984L15.0329 23.1859C14.9427 23.0959 14.8711 22.989 14.8223 22.8713C14.7734 22.7536 14.7483 22.6274 14.7483 22.5C14.7483 22.3726 14.7734 22.2464 14.8223 22.1287C14.8711 22.011 14.9427 21.9041 15.0329 21.8141L20.8454 16.0016C21.0273 15.8197 21.274 15.7175 21.5313 15.7175C21.7885 15.7175 22.0352 15.8197 22.2171 16.0016C22.3991 16.1835 22.5012 16.4303 22.5012 16.6875C22.5012 16.9448 22.3991 17.1915 22.2171 17.3734L18.0573 21.5313L29.2813 21.5313C29.5382 21.5313 29.7846 21.6333 29.9663 21.815C30.148 21.9967 30.25 22.2431 30.25 22.5Z" fill="white"/>
</svg>
