<svg width="45" height="45" viewBox="0 0 45 45" fill="none" xmlns="http://www.w3.org/2000/svg">
<rect width="45" height="45" fill="#8D86C9"/>
<path fill-rule="evenodd" clip-rule="evenodd" d="M14.75 22.5C14.75 22.7569 14.852 23.0033 15.0337 23.185C15.2154 23.3667 15.4618 23.4688 15.7187 23.4688L26.9427 23.4688L22.7829 27.6266C22.6928 27.7167 22.6213 27.8236 22.5726 27.9413C22.5238 28.059 22.4988 28.1851 22.4988 28.3125C22.4988 28.4399 22.5238 28.566 22.5726 28.6837C22.6213 28.8014 22.6928 28.9083 22.7829 28.9984C22.8729 29.0884 22.9799 29.1599 23.0975 29.2086C23.2152 29.2574 23.3413 29.2825 23.4687 29.2825C23.5961 29.2825 23.7222 29.2574 23.8399 29.2086C23.9576 29.1599 24.0645 29.0884 24.1546 28.9984L29.9671 23.1859C30.0573 23.0959 30.1289 22.989 30.1777 22.8713C30.2266 22.7536 30.2517 22.6274 30.2517 22.5C30.2517 22.3726 30.2266 22.2464 30.1777 22.1287C30.1289 22.011 30.0573 21.9041 29.9671 21.8141L24.1546 16.0016C23.9727 15.8197 23.726 15.7175 23.4687 15.7175C23.2115 15.7175 22.9648 15.8197 22.7829 16.0016C22.6009 16.1835 22.4988 16.4303 22.4988 16.6875C22.4988 16.9448 22.6009 17.1915 22.7829 17.3734L26.9427 21.5313L15.7187 21.5313C15.4618 21.5313 15.2154 21.6333 15.0337 21.815C14.852 21.9967 14.75 22.2431 14.75 22.5Z" fill="white"/>
</svg>
